<?xml version="1.0" standalone="no"?>
<!DOCTYPE svg PUBLIC "-//W3C//DTD SVG 20010904//EN"
 "http://www.w3.org/TR/2001/REC-SVG-20010904/DTD/svg10.dtd">
<svg version="1.0" xmlns="http://www.w3.org/2000/svg"
 width="200.000000pt" height="200.000000pt" viewBox="0 0 200.000000 200.000000"
 preserveAspectRatio="xMidYMid meet">

<g transform="translate(0.000000,200.000000) scale(0.100000,-0.100000)"
fill="#000000" stroke="none">
<path d="M0 1000 l0 -1000 1000 0 1000 0 0 1000 0 1000 -1000 0 -1000 0 0
-1000z m1140 303 c18 -21 56 -63 84 -93 29 -30 98 -106 155 -167 l102 -113
-138 0 -138 0 135 -135 135 -135 -310 1 -310 0 -118 132 c-65 73 -147 164
-183 202 l-64 70 130 3 c71 1 130 4 130 6 0 4 -10 15 -170 179 l-85 87 307 0
306 0 32 -37z"/>
<path d="M970 1122 l0 -52 -107 0 -108 0 120 -120 120 -120 3 49 3 50 100 3
100 3 -115 120 -116 120 0 -53z"/>
</g>
</svg>
