<?xml version="1.0" encoding="UTF-8" standalone="no"?>
<!DOCTYPE svg PUBLIC "-//W3C//DTD SVG 1.1//EN" "http://www.w3.org/Graphics/SVG/1.1/DTD/svg11.dtd">
<svg xmlns="http://www.w3.org/2000/svg" version="1.1" viewBox="0.00 0.00 256.00 256.00">
  <path fill="#F2545B" d="
  M 256.00 0.00
  L 256.00 256.00
  L 0.00 256.00
  L 0.00 0.00
  L 256.00 0.00
  Z
  M 44.00 58.47
  L 44.00 160.77
  A 1.19 1.19 0.0 0 0 44.84 161.91
  Q 54.65 164.89 65.07 161.87
  A 0.77 0.76 82.0 0 0 65.62 161.13
  L 65.62 125.93
  A 0.39 0.39 0.0 0 1 66.04 125.54
  L 82.23 126.49
  A 0.99 0.96 -12.7 0 1 83.03 126.98
  L 102.70 161.05
  A 1.38 1.37 -7.1 0 0 103.52 161.68
  C 110.54 163.66 120.21 164.40 127.21 161.65
  A 0.54 0.54 0.0 0 0 127.48 160.87
  L 103.86 121.21
  A 0.26 0.26 0.0 0 1 103.95 120.86
  C 118.42 112.47 122.40 95.01 118.80 79.63
  C 115.26 64.51 101.53 57.36 87.20 55.80
  Q 66.56 53.55 44.67 57.67
  A 0.81 0.81 0.0 0 0 44.00 58.47
  Z
  M 209.39 78.89
  Q 210.22 68.97 205.88 60.63
  A 3.33 3.30 0.5 0 0 204.52 59.26
  C 195.69 54.47 182.01 54.26 172.08 55.85
  C 143.48 60.44 129.79 82.36 129.04 109.98
  C 128.41 132.85 136.97 154.41 159.80 162.41
  Q 169.36 165.76 178.01 165.46
  Q 183.54 165.27 188.26 164.99
  Q 191.65 164.78 193.53 167.50
  C 195.32 170.09 193.41 172.91 191.52 174.85
  Q 186.03 180.44 177.74 180.96
  C 169.45 181.47 159.99 180.34 151.65 178.88
  Q 123.45 173.95 89.25 171.44
  C 79.39 170.72 69.03 170.48 58.88 173.11
  Q 46.22 176.40 44.34 189.00
  Q 42.11 203.99 55.51 211.55
  C 65.10 216.97 79.42 217.17 90.12 215.97
  Q 95.27 215.39 96.80 214.72
  C 102.99 212.02 104.08 204.45 98.95 200.02
  Q 95.74 197.25 92.22 197.84
  Q 91.63 197.95 77.51 200.49
  C 71.60 201.55 59.50 202.48 59.00 194.06
  C 58.72 189.18 62.24 187.15 66.56 186.50
  Q 73.60 185.43 81.51 185.75
  C 106.15 186.72 133.58 190.94 162.00 195.74
  Q 169.89 197.07 179.49 197.01
  C 194.37 196.90 210.40 189.82 212.08 173.49
  Q 213.54 159.31 209.49 144.27
  A 0.62 0.62 0.0 0 0 208.81 143.81
  C 195.32 145.67 180.42 147.83 168.54 142.20
  C 154.01 135.31 151.24 119.37 152.33 104.93
  C 153.20 93.49 158.53 82.60 169.34 77.85
  C 181.40 72.55 196.61 73.48 208.77 79.24
  A 0.43 0.43 0.0 0 0 209.39 78.89
  Z" />
  <path fill="#ffffff" d="
  M 44.00 58.47
  A 0.81 0.81 0.0 0 1 44.67 57.67
  Q 66.56 53.55 87.20 55.80
  C 101.53 57.36 115.26 64.51 118.80 79.63
  C 122.40 95.01 118.42 112.47 103.95 120.86
  A 0.26 0.26 0.0 0 0 103.86 121.21
  L 127.48 160.87
  A 0.54 0.54 0.0 0 1 127.21 161.65
  C 120.21 164.40 110.54 163.66 103.52 161.68
  A 1.38 1.37 -7.1 0 1 102.70 161.05
  L 83.03 126.98
  A 0.99 0.96 -12.7 0 0 82.23 126.49
  L 66.04 125.54
  A 0.39 0.39 0.0 0 0 65.62 125.93
  L 65.62 161.13
  A 0.77 0.76 82.0 0 1 65.07 161.87
  Q 54.65 164.89 44.84 161.91
  A 1.19 1.19 0.0 0 1 44.00 160.77
  L 44.00 58.47
  Z
  M 65.37 76.86
  L 65.33 104.82
  A 2.36 2.36 0.0 0 0 67.68 107.19
  L 81.15 107.21
  A 16.67 15.02 0.1 0 0 97.85 92.22
  L 97.85 89.58
  A 16.67 15.02 0.1 0 0 81.21 74.53
  L 67.74 74.51
  A 2.36 2.36 0.0 0 0 65.37 76.86
  Z" />
  <path fill="#ffffff" d="
  M 208.77 79.24
  C 196.61 73.48 181.40 72.55 169.34 77.85
  C 158.53 82.60 153.20 93.49 152.33 104.93
  C 151.24 119.37 154.01 135.31 168.54 142.20
  C 180.42 147.83 195.32 145.67 208.81 143.81
  A 0.62 0.62 0.0 0 1 209.49 144.27
  Q 213.54 159.31 212.08 173.49
  C 210.40 189.82 194.37 196.90 179.49 197.01
  Q 169.89 197.07 162.00 195.74
  C 133.58 190.94 106.15 186.72 81.51 185.75
  Q 73.60 185.43 66.56 186.50
  C 62.24 187.15 58.72 189.18 59.00 194.06
  C 59.50 202.48 71.60 201.55 77.51 200.49
  Q 91.63 197.95 92.22 197.84
  Q 95.74 197.25 98.95 200.02
  C 104.08 204.45 102.99 212.02 96.80 214.72
  Q 95.27 215.39 90.12 215.97
  C 79.42 217.17 65.10 216.97 55.51 211.55
  Q 42.11 203.99 44.34 189.00
  Q 46.22 176.40 58.88 173.11
  C 69.03 170.48 79.39 170.72 89.25 171.44
  Q 123.45 173.95 151.65 178.88
  C 159.99 180.34 169.45 181.47 177.74 180.96
  Q 186.03 180.44 191.52 174.85
  C 193.41 172.91 195.32 170.09 193.53 167.50
  Q 191.65 164.78 188.26 164.99
  Q 183.54 165.27 178.01 165.46
  Q 169.36 165.76 159.80 162.41
  C 136.97 154.41 128.41 132.85 129.04 109.98
  C 129.79 82.36 143.48 60.44 172.08 55.85
  C 182.01 54.26 195.69 54.47 204.52 59.26
  A 3.33 3.30 0.5 0 1 205.88 60.63
  Q 210.22 68.97 209.39 78.89
  A 0.43 0.43 0.0 0 1 208.77 79.24
  Z" />
  <path fill="#F2545B" d="
  M 65.37 76.86
  A 2.36 2.36 0.0 0 1 67.74 74.51
  L 81.21 74.53
  A 16.67 15.02 0.1 0 1 97.85 89.58
  L 97.85 92.22
  A 16.67 15.02 0.1 0 1 81.15 107.21
  L 67.68 107.19
  A 2.36 2.36 0.0 0 1 65.33 104.82
  L 65.37 76.86
  Z" />
</svg>